<mxfile host="app.diagrams.net" modified="2022-01-20T22:11:26.071Z" agent="5.0 (Macintosh)" etag="qpRa8Aq15zOnCFso9vut" version="16.4.3" type="github">
  <diagram id="sRbobUZv4Fs5mgWa_nU5" name="Page-1">
    <mxGraphModel dx="1234" dy="765" grid="1" gridSize="10" guides="1" tooltips="1" connect="1" arrows="1" fold="1" page="1" pageScale="1" pageWidth="850" pageHeight="1100" math="0" shadow="0">
      <root>
        <mxCell id="0" />
        <mxCell id="1" parent="0" />
        <mxCell id="W9r_WWHe_khJYrfU-Fzv-1" value="foo" style="shape=cylinder3;whiteSpace=wrap;html=1;boundedLbl=1;backgroundOutline=1;size=15;" vertex="1" parent="1">
          <mxGeometry x="390" y="360" width="60" height="80" as="geometry" />
        </mxCell>
      </root>
    </mxGraphModel>
  </diagram>
</mxfile>
